<svg xmlns="http://www.w3.org/2000/svg" xmlns:xlink="http://www.w3.org/1999/xlink" width="1080" zoomAndPan="magnify" viewBox="0 0 810 809.999993" height="1080" preserveAspectRatio="xMidYMid meet" version="1.0"><defs><clipPath id="44dfc6343a"><path d="M 405 0 C 181.324219 0 0 181.324219 0 405 C 0 628.675781 181.324219 810 405 810 C 628.675781 810 810 628.675781 810 405 C 810 181.324219 628.675781 0 405 0 Z M 405 0 " clip-rule="nonzero"/></clipPath><clipPath id="dfc82e9595"><path d="M 114.515625 392 L 695.539062 392 L 695.539062 663 L 114.515625 663 Z M 114.515625 392 " clip-rule="nonzero"/></clipPath></defs><rect x="-81" width="972" fill="#ffffff" y="-80.999999" height="971.999992" fill-opacity="1"/><rect x="-81" width="972" fill="#ffffff" y="-80.999999" height="971.999992" fill-opacity="1"/><g clip-path="url(#44dfc6343a)"><rect x="-81" width="972" fill="#efbf00" y="-80.999999" height="971.999992" fill-opacity="1"/></g><g clip-path="url(#dfc82e9595)"><path fill="#ffffff" d="M 507.660156 392.953125 C 477.101562 417 438.621094 431.394531 396.8125 431.394531 C 356.042969 431.394531 318.40625 417.714844 288.230469 394.730469 C 189.746094 410.648438 114.515625 496.035156 114.515625 599.019531 C 114.515625 713.347656 207.1875 639.023438 321.5 639.023438 L 488.480469 639.023438 C 602.800781 639.023438 695.476562 713.347656 695.476562 599.019531 C 695.476562 491.179688 612.980469 402.628906 507.660156 392.953125 Z M 507.660156 392.953125 " fill-opacity="1" fill-rule="nonzero"/></g><path fill="#ffffff" d="M 396.8125 407.304688 C 482.570312 407.304688 552.328125 337.53125 552.328125 251.765625 C 552.328125 166.011719 482.570312 96.238281 396.8125 96.238281 C 311.054688 96.238281 241.289062 166.011719 241.289062 251.765625 C 241.296875 337.53125 311.0625 407.304688 396.8125 407.304688 Z M 396.8125 407.304688 " fill-opacity="1" fill-rule="nonzero"/></svg>